<mxfile host="65bd71144e" modified="2020-10-09T11:30:19.232Z" agent="5.0 (Macintosh; Intel Mac OS X 10_15_7) AppleWebKit/537.36 (KHTML, like Gecko) Code/1.50.0 Chrome/83.0.4103.122 Electron/9.2.1 Safari/537.36" etag="Zru0HQQskX_fRDuuUJkm" version="13.6.5" pages="4">
    <diagram id="_b5Rkqr3byR9Z1XHX-ov" name="shapley">
        <mxGraphModel dx="1127" dy="860" grid="1" gridSize="10" guides="1" tooltips="1" connect="1" arrows="1" fold="1" page="1" pageScale="1" pageWidth="1169" pageHeight="827" math="0" shadow="0">
            <root>
                <mxCell id="ipJoD4O8Gq_C7agh12_e-0"/>
                <mxCell id="ipJoD4O8Gq_C7agh12_e-1" parent="ipJoD4O8Gq_C7agh12_e-0"/>
                <mxCell id="haKVdh3nFrV-VK93i_FL-26" value="" style="rounded=1;whiteSpace=wrap;html=1;align=left;dashed=1;strokeWidth=3;fillColor=#d5e8d4;strokeColor=#82b366;" vertex="1" parent="ipJoD4O8Gq_C7agh12_e-1">
                    <mxGeometry x="80" y="220" width="920" height="610" as="geometry"/>
                </mxCell>
                <mxCell id="haKVdh3nFrV-VK93i_FL-16" value="" style="rounded=1;whiteSpace=wrap;html=1;align=left;fillColor=#D4E1F5;" vertex="1" parent="ipJoD4O8Gq_C7agh12_e-1">
                    <mxGeometry x="90" y="360" width="850" height="380" as="geometry"/>
                </mxCell>
                <mxCell id="Y4hTjhzURIqlfnZE_zD2-0" value="&lt;table border=&quot;1&quot; width=&quot;100%&quot; style=&quot;width: 100% ; height: 100% ; border-collapse: collapse&quot;&gt;&lt;tbody style=&quot;font-size: 14px&quot;&gt;&lt;tr&gt;&lt;td&gt;&lt;b&gt;Near Park&lt;/b&gt;&lt;/td&gt;&lt;td&gt;&lt;b&gt;House Area&lt;/b&gt;&lt;/td&gt;&lt;td&gt;&lt;b&gt;Cat OK?&lt;/b&gt;&lt;/td&gt;&lt;td&gt;&lt;b&gt;Floor&lt;/b&gt;&lt;/td&gt;&lt;/tr&gt;&lt;tr&gt;&lt;td&gt;Yes&lt;/td&gt;&lt;td&gt;20&lt;/td&gt;&lt;td&gt;Yes&lt;/td&gt;&lt;td&gt;3&lt;/td&gt;&lt;/tr&gt;&lt;/tbody&gt;&lt;/table&gt;" style="text;html=1;strokeColor=none;fillColor=none;overflow=fill;fontSize=12;align=center;" parent="ipJoD4O8Gq_C7agh12_e-1" vertex="1">
                    <mxGeometry x="170" y="70" width="300" height="100" as="geometry"/>
                </mxCell>
                <mxCell id="Y4hTjhzURIqlfnZE_zD2-12" value="" style="edgeStyle=orthogonalEdgeStyle;rounded=0;orthogonalLoop=1;jettySize=auto;html=1;fontSize=12;exitX=1;exitY=0.5;exitDx=0;exitDy=0;" parent="ipJoD4O8Gq_C7agh12_e-1" source="haKVdh3nFrV-VK93i_FL-4" target="haKVdh3nFrV-VK93i_FL-1" edge="1">
                    <mxGeometry relative="1" as="geometry">
                        <mxPoint x="570" y="320" as="targetPoint"/>
                    </mxGeometry>
                </mxCell>
                <mxCell id="haKVdh3nFrV-VK93i_FL-5" value="" style="edgeStyle=orthogonalEdgeStyle;rounded=0;orthogonalLoop=1;jettySize=auto;html=1;" edge="1" parent="ipJoD4O8Gq_C7agh12_e-1" source="Y4hTjhzURIqlfnZE_zD2-1" target="haKVdh3nFrV-VK93i_FL-4">
                    <mxGeometry relative="1" as="geometry"/>
                </mxCell>
                <mxCell id="Y4hTjhzURIqlfnZE_zD2-1" value="&lt;table border=&quot;1&quot; width=&quot;100%&quot; style=&quot;width: 100% ; height: 100% ; border-collapse: collapse&quot;&gt;&lt;tbody style=&quot;font-size: 14px&quot;&gt;&lt;tr&gt;&lt;td&gt;&lt;b&gt;Cat OK&lt;/b&gt;&lt;/td&gt;&lt;td&gt;&lt;b&gt;House Area&lt;/b&gt;&lt;/td&gt;&lt;/tr&gt;&lt;tr&gt;&lt;td&gt;Yes&lt;/td&gt;&lt;td&gt;20&lt;/td&gt;&lt;/tr&gt;&lt;/tbody&gt;&lt;/table&gt;" style="text;html=1;strokeColor=none;fillColor=none;overflow=fill;fontSize=12;align=center;" parent="ipJoD4O8Gq_C7agh12_e-1" vertex="1">
                    <mxGeometry x="230" y="260" width="200" height="70" as="geometry"/>
                </mxCell>
                <mxCell id="Y4hTjhzURIqlfnZE_zD2-27" value="Randomly pick some features except &quot;CAT OK&quot;. E.g. &quot;House Area&quot;&lt;br&gt;Intuitively: &quot;Cat OK&quot; teams up with &quot;House Area&quot;, call team &quot;Cat OK &amp;amp; House Area&quot;" style="text;html=1;strokeColor=none;fillColor=none;align=left;verticalAlign=middle;whiteSpace=wrap;rounded=0;fontSize=12;fontStyle=2" parent="ipJoD4O8Gq_C7agh12_e-1" vertex="1">
                    <mxGeometry x="440" y="260" width="260" height="60" as="geometry"/>
                </mxCell>
                <mxCell id="Y4hTjhzURIqlfnZE_zD2-29" value="This is a sample house. There are 4 features." style="text;html=1;strokeColor=none;fillColor=none;align=center;verticalAlign=middle;whiteSpace=wrap;rounded=0;fontSize=12;fontStyle=2" parent="ipJoD4O8Gq_C7agh12_e-1" vertex="1">
                    <mxGeometry x="130" y="40" width="320" height="20" as="geometry"/>
                </mxCell>
                <mxCell id="Y4hTjhzURIqlfnZE_zD2-30" value="" style="shape=flexArrow;endArrow=classic;html=1;fontSize=12;" parent="ipJoD4O8Gq_C7agh12_e-1" edge="1">
                    <mxGeometry width="50" height="50" relative="1" as="geometry">
                        <mxPoint x="330.5" y="200" as="sourcePoint"/>
                        <mxPoint x="329.5" y="250" as="targetPoint"/>
                        <Array as="points">
                            <mxPoint x="330.5" y="220"/>
                        </Array>
                    </mxGeometry>
                </mxCell>
                <mxCell id="bMY2A5vMi_21tMdnOpJw-0" value="Calculate Shapley value for feature value: Cat OK?=Yes." style="text;html=1;strokeColor=none;fillColor=none;align=center;verticalAlign=middle;whiteSpace=wrap;rounded=0;fontSize=12;fontStyle=2" vertex="1" parent="ipJoD4O8Gq_C7agh12_e-1">
                    <mxGeometry x="140" y="170" width="360" height="20" as="geometry"/>
                </mxCell>
                <mxCell id="bMY2A5vMi_21tMdnOpJw-1" value="Except &quot;CAT OK&quot; and chosen features, randomly fill other features values.&lt;br&gt;- Fill Floor = 2&lt;br&gt;- Fill Near Park = Yes" style="text;html=1;strokeColor=none;fillColor=none;align=left;verticalAlign=middle;whiteSpace=wrap;rounded=0;fontSize=12;fontStyle=2" vertex="1" parent="ipJoD4O8Gq_C7agh12_e-1">
                    <mxGeometry x="180" y="495" width="320" height="60" as="geometry"/>
                </mxCell>
                <mxCell id="haKVdh3nFrV-VK93i_FL-0" value="" style="edgeStyle=orthogonalEdgeStyle;rounded=0;orthogonalLoop=1;jettySize=auto;html=1;" edge="1" parent="ipJoD4O8Gq_C7agh12_e-1" source="haKVdh3nFrV-VK93i_FL-1" target="haKVdh3nFrV-VK93i_FL-2">
                    <mxGeometry relative="1" as="geometry"/>
                </mxCell>
                <mxCell id="haKVdh3nFrV-VK93i_FL-1" value="Model" style="shape=cube;whiteSpace=wrap;html=1;boundedLbl=1;backgroundOutline=1;darkOpacity=0.05;darkOpacity2=0.1;" vertex="1" parent="ipJoD4O8Gq_C7agh12_e-1">
                    <mxGeometry x="525" y="415" width="90" height="50" as="geometry"/>
                </mxCell>
                <mxCell id="haKVdh3nFrV-VK93i_FL-2" value="&lt;table border=&quot;1&quot; width=&quot;100%&quot; style=&quot;width: 100% ; height: 100% ; border-collapse: collapse&quot;&gt;&lt;tbody&gt;&lt;tr&gt;&lt;td&gt;Prediction&lt;/td&gt;&lt;/tr&gt;&lt;tr&gt;&lt;td&gt;100,000&lt;/td&gt;&lt;/tr&gt;&lt;/tbody&gt;&lt;/table&gt;" style="text;html=1;strokeColor=none;fillColor=none;overflow=fill;align=center;" vertex="1" parent="ipJoD4O8Gq_C7agh12_e-1">
                    <mxGeometry x="670" y="410" width="60" height="60" as="geometry"/>
                </mxCell>
                <mxCell id="haKVdh3nFrV-VK93i_FL-4" value="&lt;table border=&quot;1&quot; width=&quot;100%&quot; style=&quot;width: 100% ; height: 100% ; border-collapse: collapse&quot;&gt;&lt;tbody style=&quot;font-size: 14px&quot;&gt;&lt;tr&gt;&lt;td&gt;&lt;b&gt;Near Park&lt;/b&gt;&lt;/td&gt;&lt;td&gt;&lt;b&gt;House Area&lt;/b&gt;&lt;/td&gt;&lt;td&gt;&lt;b&gt;Cat OK?&lt;/b&gt;&lt;/td&gt;&lt;td&gt;&lt;b&gt;Floor&lt;/b&gt;&lt;/td&gt;&lt;/tr&gt;&lt;tr&gt;&lt;td&gt;&lt;font color=&quot;#ff3399&quot;&gt;Yes&lt;/font&gt;&lt;/td&gt;&lt;td&gt;20&lt;/td&gt;&lt;td&gt;Yes&lt;/td&gt;&lt;td&gt;&lt;font color=&quot;#ff3399&quot;&gt;2&lt;/font&gt;&lt;/td&gt;&lt;/tr&gt;&lt;/tbody&gt;&lt;/table&gt;" style="text;html=1;strokeColor=none;fillColor=none;overflow=fill;fontSize=12;align=center;" vertex="1" parent="ipJoD4O8Gq_C7agh12_e-1">
                    <mxGeometry x="180" y="390" width="300" height="100" as="geometry"/>
                </mxCell>
                <mxCell id="haKVdh3nFrV-VK93i_FL-7" value="Create Team a team with &quot;Cat OK&quot;" style="text;html=1;strokeColor=none;fillColor=none;align=center;verticalAlign=middle;whiteSpace=wrap;rounded=0;fontStyle=3" vertex="1" parent="ipJoD4O8Gq_C7agh12_e-1">
                    <mxGeometry x="440" y="240" width="200" height="20" as="geometry"/>
                </mxCell>
                <mxCell id="haKVdh3nFrV-VK93i_FL-8" value="Step 1" style="text;html=1;strokeColor=none;fillColor=none;align=center;verticalAlign=middle;whiteSpace=wrap;rounded=0;fontStyle=3" vertex="1" parent="ipJoD4O8Gq_C7agh12_e-1">
                    <mxGeometry x="140" y="495" width="40" height="20" as="geometry"/>
                </mxCell>
                <mxCell id="haKVdh3nFrV-VK93i_FL-9" value="" style="edgeStyle=orthogonalEdgeStyle;rounded=0;orthogonalLoop=1;jettySize=auto;html=1;fontSize=12;exitX=1;exitY=0.5;exitDx=0;exitDy=0;" edge="1" parent="ipJoD4O8Gq_C7agh12_e-1" source="haKVdh3nFrV-VK93i_FL-14" target="haKVdh3nFrV-VK93i_FL-12">
                    <mxGeometry relative="1" as="geometry">
                        <mxPoint x="570" y="520" as="targetPoint"/>
                    </mxGeometry>
                </mxCell>
                <mxCell id="haKVdh3nFrV-VK93i_FL-10" value="Randomly change &quot;Cat OK&quot; feature.&lt;br&gt;E.g. Change &quot;Cat OK&quot; to No. It could Yes or no." style="text;html=1;strokeColor=none;fillColor=none;align=left;verticalAlign=top;whiteSpace=wrap;rounded=0;fontSize=12;fontStyle=2" vertex="1" parent="ipJoD4O8Gq_C7agh12_e-1">
                    <mxGeometry x="150" y="690" width="320" height="60" as="geometry"/>
                </mxCell>
                <mxCell id="haKVdh3nFrV-VK93i_FL-11" value="" style="edgeStyle=orthogonalEdgeStyle;rounded=0;orthogonalLoop=1;jettySize=auto;html=1;" edge="1" parent="ipJoD4O8Gq_C7agh12_e-1" source="haKVdh3nFrV-VK93i_FL-12" target="haKVdh3nFrV-VK93i_FL-13">
                    <mxGeometry relative="1" as="geometry"/>
                </mxCell>
                <mxCell id="haKVdh3nFrV-VK93i_FL-12" value="Model" style="shape=cube;whiteSpace=wrap;html=1;boundedLbl=1;backgroundOutline=1;darkOpacity=0.05;darkOpacity2=0.1;" vertex="1" parent="ipJoD4O8Gq_C7agh12_e-1">
                    <mxGeometry x="520" y="605" width="90" height="50" as="geometry"/>
                </mxCell>
                <mxCell id="haKVdh3nFrV-VK93i_FL-13" value="&lt;table border=&quot;1&quot; width=&quot;100%&quot; style=&quot;width: 100% ; height: 100% ; border-collapse: collapse&quot;&gt;&lt;tbody&gt;&lt;tr&gt;&lt;td&gt;Prediction&lt;/td&gt;&lt;/tr&gt;&lt;tr&gt;&lt;td&gt;90,000&lt;/td&gt;&lt;/tr&gt;&lt;/tbody&gt;&lt;/table&gt;" style="text;html=1;strokeColor=none;fillColor=none;overflow=fill;align=center;" vertex="1" parent="ipJoD4O8Gq_C7agh12_e-1">
                    <mxGeometry x="670" y="600" width="60" height="60" as="geometry"/>
                </mxCell>
                <mxCell id="haKVdh3nFrV-VK93i_FL-14" value="&lt;table border=&quot;1&quot; width=&quot;100%&quot; style=&quot;width: 100% ; height: 100% ; border-collapse: collapse&quot;&gt;&lt;tbody style=&quot;font-size: 14px&quot;&gt;&lt;tr&gt;&lt;td&gt;&lt;b&gt;Near Park&lt;/b&gt;&lt;/td&gt;&lt;td&gt;&lt;b&gt;House Area&lt;/b&gt;&lt;/td&gt;&lt;td&gt;&lt;b&gt;Cat OK?&lt;/b&gt;&lt;/td&gt;&lt;td&gt;&lt;b&gt;Floor&lt;/b&gt;&lt;/td&gt;&lt;/tr&gt;&lt;tr&gt;&lt;td&gt;&lt;font color=&quot;#ff3399&quot;&gt;Yes&lt;/font&gt;&lt;/td&gt;&lt;td&gt;20&lt;/td&gt;&lt;td&gt;&lt;font color=&quot;#006633&quot;&gt;No&lt;/font&gt;&lt;/td&gt;&lt;td&gt;&lt;font color=&quot;#ff3399&quot;&gt;2&lt;/font&gt;&lt;/td&gt;&lt;/tr&gt;&lt;/tbody&gt;&lt;/table&gt;" style="text;html=1;strokeColor=none;fillColor=none;overflow=fill;fontSize=12;align=center;" vertex="1" parent="ipJoD4O8Gq_C7agh12_e-1">
                    <mxGeometry x="180" y="580" width="300" height="100" as="geometry"/>
                </mxCell>
                <mxCell id="haKVdh3nFrV-VK93i_FL-15" value="Step 2" style="text;html=1;strokeColor=none;fillColor=none;align=center;verticalAlign=middle;whiteSpace=wrap;rounded=0;fontStyle=3" vertex="1" parent="ipJoD4O8Gq_C7agh12_e-1">
                    <mxGeometry x="110" y="700" width="40" height="20" as="geometry"/>
                </mxCell>
                <mxCell id="haKVdh3nFrV-VK93i_FL-20" value="&lt;table border=&quot;1&quot; width=&quot;100%&quot; style=&quot;width: 100% ; height: 100% ; border-collapse: collapse&quot;&gt;&lt;tbody&gt;&lt;tr&gt;&lt;td&gt;Delta change&lt;/td&gt;&lt;/tr&gt;&lt;tr&gt;&lt;td&gt;100,000 - 90,000 = 10&lt;/td&gt;&lt;/tr&gt;&lt;/tbody&gt;&lt;/table&gt;" style="text;html=1;strokeColor=none;fillColor=none;overflow=fill;align=center;" vertex="1" parent="ipJoD4O8Gq_C7agh12_e-1">
                    <mxGeometry x="750" y="500" width="130" height="60" as="geometry"/>
                </mxCell>
                <mxCell id="haKVdh3nFrV-VK93i_FL-22" value="Contribution of &quot;Cat OK&quot; is 10" style="text;html=1;align=center;verticalAlign=middle;whiteSpace=wrap;rounded=0;fontStyle=2;fillColor=#f8cecc;strokeColor=#b85450;" vertex="1" parent="ipJoD4O8Gq_C7agh12_e-1">
                    <mxGeometry x="730" y="570" width="180" height="20" as="geometry"/>
                </mxCell>
                <mxCell id="haKVdh3nFrV-VK93i_FL-24" style="edgeStyle=orthogonalEdgeStyle;rounded=0;orthogonalLoop=1;jettySize=auto;html=1;entryX=1;entryY=0.526;entryDx=0;entryDy=0;entryPerimeter=0;endArrow=block;endFill=1;strokeWidth=3;startArrow=classic;startFill=1;" edge="1" parent="ipJoD4O8Gq_C7agh12_e-1" source="haKVdh3nFrV-VK93i_FL-16" target="haKVdh3nFrV-VK93i_FL-16">
                    <mxGeometry relative="1" as="geometry">
                        <mxPoint x="1030" y="600" as="targetPoint"/>
                        <Array as="points">
                            <mxPoint x="525" y="780"/>
                            <mxPoint x="970" y="780"/>
                            <mxPoint x="970" y="560"/>
                        </Array>
                    </mxGeometry>
                </mxCell>
                <mxCell id="haKVdh3nFrV-VK93i_FL-25" value="Repeat to get better Contribution estimate" style="text;html=1;strokeColor=none;fillColor=none;align=center;verticalAlign=middle;whiteSpace=wrap;rounded=0;" vertex="1" parent="ipJoD4O8Gq_C7agh12_e-1">
                    <mxGeometry x="670" y="750" width="140" height="20" as="geometry"/>
                </mxCell>
                <mxCell id="haKVdh3nFrV-VK93i_FL-27" style="edgeStyle=orthogonalEdgeStyle;rounded=0;orthogonalLoop=1;jettySize=auto;html=1;entryX=1;entryY=0.5;entryDx=0;entryDy=0;startArrow=classic;startFill=1;endArrow=block;endFill=1;strokeWidth=3;" edge="1" parent="ipJoD4O8Gq_C7agh12_e-1" source="haKVdh3nFrV-VK93i_FL-26" target="haKVdh3nFrV-VK93i_FL-26">
                    <mxGeometry relative="1" as="geometry">
                        <Array as="points">
                            <mxPoint x="540" y="880"/>
                            <mxPoint x="1020" y="880"/>
                            <mxPoint x="1020" y="525"/>
                        </Array>
                    </mxGeometry>
                </mxCell>
                <mxCell id="haKVdh3nFrV-VK93i_FL-29" value="Repeat to create many &quot;Cat OK&quot; teams to get better Contribution estimate" style="text;html=1;strokeColor=none;fillColor=none;align=center;verticalAlign=middle;whiteSpace=wrap;rounded=0;" vertex="1" parent="ipJoD4O8Gq_C7agh12_e-1">
                    <mxGeometry x="595" y="850" width="290" height="20" as="geometry"/>
                </mxCell>
                <mxCell id="haKVdh3nFrV-VK93i_FL-30" value="" style="shape=flexArrow;endArrow=classic;html=1;fontSize=12;" edge="1" parent="ipJoD4O8Gq_C7agh12_e-1">
                    <mxGeometry width="50" height="50" relative="1" as="geometry">
                        <mxPoint x="330.5" y="850" as="sourcePoint"/>
                        <mxPoint x="329.5" y="900" as="targetPoint"/>
                        <Array as="points">
                            <mxPoint x="330.5" y="870"/>
                        </Array>
                    </mxGeometry>
                </mxCell>
                <mxCell id="haKVdh3nFrV-VK93i_FL-31" value="Shapley value = Average all Contribution of &quot;Cat OK&quot;" style="text;html=1;strokeColor=#b85450;fillColor=#f8cecc;align=center;verticalAlign=middle;whiteSpace=wrap;rounded=0;fontSize=12;fontStyle=2" vertex="1" parent="ipJoD4O8Gq_C7agh12_e-1">
                    <mxGeometry x="180" y="910" width="300" height="30" as="geometry"/>
                </mxCell>
                <mxCell id="haKVdh3nFrV-VK93i_FL-34" value="Randomize the rest of team" style="text;html=1;strokeColor=none;fillColor=none;align=center;verticalAlign=middle;whiteSpace=wrap;rounded=0;fontStyle=3" vertex="1" parent="ipJoD4O8Gq_C7agh12_e-1">
                    <mxGeometry x="150" y="370" width="190" height="20" as="geometry"/>
                </mxCell>
            </root>
        </mxGraphModel>
    </diagram>
    <diagram id="6hGFLwfOUW9BJ-s0fimq" name="pdp">
        <mxGraphModel dx="1127" dy="860" grid="1" gridSize="10" guides="1" tooltips="1" connect="1" arrows="1" fold="1" page="1" pageScale="1" pageWidth="1169" pageHeight="827" math="0" shadow="0">
            <root>
                <mxCell id="0"/>
                <mxCell id="1" parent="0"/>
                <mxCell id="5" value="" style="edgeStyle=orthogonalEdgeStyle;rounded=0;orthogonalLoop=1;jettySize=auto;html=1;" parent="1" source="3" target="4" edge="1">
                    <mxGeometry relative="1" as="geometry"/>
                </mxCell>
                <mxCell id="8" value="" style="edgeStyle=orthogonalEdgeStyle;rounded=0;orthogonalLoop=1;jettySize=auto;html=1;" parent="1" source="3" target="7" edge="1">
                    <mxGeometry relative="1" as="geometry"/>
                </mxCell>
                <mxCell id="26" value="" style="edgeStyle=orthogonalEdgeStyle;rounded=0;orthogonalLoop=1;jettySize=auto;html=1;entryX=0;entryY=0.5;entryDx=0;entryDy=0;" parent="1" source="3" target="24" edge="1">
                    <mxGeometry relative="1" as="geometry">
                        <Array as="points">
                            <mxPoint x="200" y="275"/>
                            <mxPoint x="200" y="432"/>
                        </Array>
                    </mxGeometry>
                </mxCell>
                <mxCell id="3" value="&lt;table border=&quot;1&quot; width=&quot;100%&quot; style=&quot;width: 100%; height: 100%; border-collapse: collapse; font-size: 14px;&quot;&gt;&lt;tbody style=&quot;font-size: 14px;&quot;&gt;&lt;tr style=&quot;font-size: 14px;&quot;&gt;&lt;td align=&quot;center&quot; style=&quot;font-size: 14px;&quot;&gt;&lt;b style=&quot;font-size: 14px;&quot;&gt;&lt;font style=&quot;font-size: 14px;&quot;&gt;F1&lt;/font&gt;&lt;/b&gt;&lt;/td&gt;&lt;td align=&quot;center&quot; style=&quot;font-size: 14px;&quot;&gt;&lt;font style=&quot;font-size: 14px;&quot;&gt;&lt;b style=&quot;font-size: 14px;&quot;&gt;F2&lt;/b&gt;&lt;/font&gt;&lt;/td&gt;&lt;td align=&quot;center&quot; style=&quot;font-size: 14px;&quot;&gt;&lt;b style=&quot;font-size: 14px;&quot;&gt;&lt;font style=&quot;font-size: 14px;&quot;&gt;F3&lt;/font&gt;&lt;/b&gt;&lt;/td&gt;&lt;/tr&gt;&lt;tr style=&quot;font-size: 14px;&quot;&gt;&lt;td align=&quot;center&quot; style=&quot;font-size: 14px;&quot;&gt;&lt;font style=&quot;font-size: 14px;&quot;&gt;A&lt;/font&gt;&lt;/td&gt;&lt;td align=&quot;center&quot; style=&quot;font-size: 14px;&quot;&gt;&lt;font style=&quot;font-size: 14px;&quot;&gt;1&lt;/font&gt;&lt;/td&gt;&lt;td align=&quot;center&quot; style=&quot;font-size: 14px;&quot;&gt;&lt;font style=&quot;font-size: 14px;&quot;&gt;4&lt;/font&gt;&lt;/td&gt;&lt;/tr&gt;&lt;tr style=&quot;font-size: 14px;&quot;&gt;&lt;td align=&quot;center&quot; style=&quot;font-size: 14px;&quot;&gt;&lt;font style=&quot;font-size: 14px;&quot;&gt;B&lt;/font&gt;&lt;/td&gt;&lt;td align=&quot;center&quot; style=&quot;font-size: 14px;&quot;&gt;&lt;font style=&quot;font-size: 14px;&quot;&gt;2&lt;/font&gt;&lt;/td&gt;&lt;td align=&quot;center&quot; style=&quot;font-size: 14px;&quot;&gt;&lt;font style=&quot;font-size: 14px;&quot;&gt;5&lt;/font&gt;&lt;/td&gt;&lt;/tr&gt;&lt;tr style=&quot;font-size: 14px;&quot;&gt;&lt;td style=&quot;text-align: center; font-size: 14px;&quot;&gt;&lt;font style=&quot;font-size: 14px;&quot;&gt;C&lt;/font&gt;&lt;/td&gt;&lt;td style=&quot;text-align: center; font-size: 14px;&quot;&gt;&lt;font style=&quot;font-size: 14px;&quot;&gt;3&lt;/font&gt;&lt;/td&gt;&lt;td style=&quot;text-align: center; font-size: 14px;&quot;&gt;&lt;font style=&quot;font-size: 14px;&quot;&gt;6&lt;/font&gt;&lt;/td&gt;&lt;/tr&gt;&lt;/tbody&gt;&lt;/table&gt;" style="text;html=1;strokeColor=none;fillColor=none;overflow=fill;fontSize=14;" parent="1" vertex="1">
                    <mxGeometry x="40" y="200" width="130" height="150" as="geometry"/>
                </mxCell>
                <mxCell id="13" value="" style="edgeStyle=orthogonalEdgeStyle;rounded=0;orthogonalLoop=1;jettySize=auto;html=1;" parent="1" source="7" target="12" edge="1">
                    <mxGeometry relative="1" as="geometry"/>
                </mxCell>
                <mxCell id="7" value="&lt;table border=&quot;1&quot; width=&quot;100%&quot; style=&quot;width: 100%; height: 100%; border-collapse: collapse; font-size: 14px;&quot;&gt;&lt;tbody style=&quot;font-size: 14px;&quot;&gt;&lt;tr style=&quot;font-size: 14px;&quot;&gt;&lt;td align=&quot;center&quot; style=&quot;font-size: 14px;&quot;&gt;&lt;b style=&quot;font-size: 14px;&quot;&gt;&lt;font style=&quot;font-size: 14px;&quot;&gt;F1&lt;/font&gt;&lt;/b&gt;&lt;/td&gt;&lt;td align=&quot;center&quot; style=&quot;font-size: 14px;&quot;&gt;&lt;b style=&quot;font-size: 14px;&quot;&gt;&lt;font style=&quot;font-size: 14px;&quot;&gt;F2&lt;/font&gt;&lt;/b&gt;&lt;/td&gt;&lt;td align=&quot;center&quot; style=&quot;font-size: 14px;&quot;&gt;&lt;b style=&quot;font-size: 14px;&quot;&gt;&lt;font style=&quot;font-size: 14px;&quot;&gt;F3&lt;/font&gt;&lt;/b&gt;&lt;/td&gt;&lt;/tr&gt;&lt;tr style=&quot;font-size: 14px;&quot;&gt;&lt;td align=&quot;center&quot; style=&quot;font-size: 14px;&quot;&gt;B&lt;/td&gt;&lt;td align=&quot;center&quot; style=&quot;font-size: 14px;&quot;&gt;1&lt;/td&gt;&lt;td align=&quot;center&quot; style=&quot;font-size: 14px;&quot;&gt;4&lt;/td&gt;&lt;/tr&gt;&lt;tr style=&quot;font-size: 14px;&quot;&gt;&lt;td align=&quot;center&quot; style=&quot;font-size: 14px;&quot;&gt;B&lt;/td&gt;&lt;td align=&quot;center&quot; style=&quot;font-size: 14px;&quot;&gt;2&lt;/td&gt;&lt;td align=&quot;center&quot; style=&quot;font-size: 14px;&quot;&gt;5&lt;/td&gt;&lt;/tr&gt;&lt;tr style=&quot;font-size: 14px;&quot;&gt;&lt;td style=&quot;text-align: center; font-size: 14px;&quot;&gt;B&lt;/td&gt;&lt;td style=&quot;text-align: center; font-size: 14px;&quot;&gt;3&lt;/td&gt;&lt;td style=&quot;text-align: center; font-size: 14px;&quot;&gt;6&lt;/td&gt;&lt;/tr&gt;&lt;/tbody&gt;&lt;/table&gt;" style="text;html=1;strokeColor=none;fillColor=none;overflow=fill;fontSize=14;" parent="1" vertex="1">
                    <mxGeometry x="230" y="280" width="130" height="110" as="geometry"/>
                </mxCell>
                <mxCell id="11" value="" style="edgeStyle=orthogonalEdgeStyle;rounded=0;orthogonalLoop=1;jettySize=auto;html=1;" parent="1" source="4" target="10" edge="1">
                    <mxGeometry relative="1" as="geometry"/>
                </mxCell>
                <mxCell id="4" value="&lt;table border=&quot;1&quot; width=&quot;100%&quot; style=&quot;width: 100% ; height: 100% ; border-collapse: collapse ; font-size: 14px&quot;&gt;&lt;tbody&gt;&lt;tr&gt;&lt;td align=&quot;center&quot;&gt;&lt;b&gt;&lt;font style=&quot;font-size: 14px&quot;&gt;F1&lt;/font&gt;&lt;/b&gt;&lt;/td&gt;&lt;td align=&quot;center&quot;&gt;&lt;b&gt;&lt;font style=&quot;font-size: 14px&quot;&gt;F2&lt;/font&gt;&lt;/b&gt;&lt;/td&gt;&lt;td align=&quot;center&quot;&gt;&lt;b&gt;&lt;font style=&quot;font-size: 14px&quot;&gt;F3&lt;/font&gt;&lt;/b&gt;&lt;/td&gt;&lt;/tr&gt;&lt;tr&gt;&lt;td align=&quot;center&quot;&gt;&lt;font style=&quot;font-size: 14px&quot;&gt;A&lt;/font&gt;&lt;/td&gt;&lt;td align=&quot;center&quot;&gt;&lt;font style=&quot;font-size: 14px&quot;&gt;1&lt;/font&gt;&lt;/td&gt;&lt;td align=&quot;center&quot;&gt;&lt;font style=&quot;font-size: 14px&quot;&gt;4&lt;/font&gt;&lt;/td&gt;&lt;/tr&gt;&lt;tr&gt;&lt;td align=&quot;center&quot;&gt;&lt;font style=&quot;font-size: 14px&quot;&gt;A&lt;/font&gt;&lt;/td&gt;&lt;td align=&quot;center&quot;&gt;&lt;font style=&quot;font-size: 14px&quot;&gt;2&lt;/font&gt;&lt;/td&gt;&lt;td align=&quot;center&quot;&gt;&lt;font style=&quot;font-size: 14px&quot;&gt;5&lt;/font&gt;&lt;/td&gt;&lt;/tr&gt;&lt;tr&gt;&lt;td style=&quot;text-align: center&quot;&gt;&lt;font style=&quot;font-size: 14px&quot;&gt;A&lt;/font&gt;&lt;/td&gt;&lt;td style=&quot;text-align: center&quot;&gt;&lt;font style=&quot;font-size: 14px&quot;&gt;3&lt;/font&gt;&lt;/td&gt;&lt;td style=&quot;text-align: center&quot;&gt;&lt;font style=&quot;font-size: 14px&quot;&gt;6&lt;/font&gt;&lt;/td&gt;&lt;/tr&gt;&lt;/tbody&gt;&lt;/table&gt;" style="text;html=1;strokeColor=none;fillColor=none;overflow=fill;" parent="1" vertex="1">
                    <mxGeometry x="230" y="110" width="130" height="110" as="geometry"/>
                </mxCell>
                <mxCell id="18" value="" style="edgeStyle=orthogonalEdgeStyle;rounded=0;orthogonalLoop=1;jettySize=auto;html=1;" parent="1" source="10" target="15" edge="1">
                    <mxGeometry relative="1" as="geometry"/>
                </mxCell>
                <mxCell id="10" value="Model" style="shape=cube;whiteSpace=wrap;html=1;boundedLbl=1;backgroundOutline=1;darkOpacity=0.05;darkOpacity2=0.1;" parent="1" vertex="1">
                    <mxGeometry x="440" y="140" width="90" height="50" as="geometry"/>
                </mxCell>
                <mxCell id="17" value="" style="edgeStyle=orthogonalEdgeStyle;rounded=0;orthogonalLoop=1;jettySize=auto;html=1;" parent="1" source="12" target="16" edge="1">
                    <mxGeometry relative="1" as="geometry"/>
                </mxCell>
                <mxCell id="12" value="Model" style="shape=cube;whiteSpace=wrap;html=1;boundedLbl=1;backgroundOutline=1;darkOpacity=0.05;darkOpacity2=0.1;" parent="1" vertex="1">
                    <mxGeometry x="440" y="310" width="90" height="50" as="geometry"/>
                </mxCell>
                <mxCell id="21" value="" style="edgeStyle=orthogonalEdgeStyle;rounded=0;orthogonalLoop=1;jettySize=auto;html=1;" parent="1" source="15" target="20" edge="1">
                    <mxGeometry relative="1" as="geometry"/>
                </mxCell>
                <mxCell id="15" value="&lt;table border=&quot;1&quot; width=&quot;100%&quot; style=&quot;width: 100% ; height: 100% ; border-collapse: collapse&quot;&gt;&lt;tbody&gt;&lt;tr&gt;&lt;td&gt;Prediction&lt;/td&gt;&lt;/tr&gt;&lt;tr&gt;&lt;td&gt;0.5&lt;/td&gt;&lt;/tr&gt;&lt;tr&gt;&lt;td&gt;0.2&lt;/td&gt;&lt;/tr&gt;&lt;tr&gt;&lt;td&gt;0.1&lt;/td&gt;&lt;/tr&gt;&lt;/tbody&gt;&lt;/table&gt;" style="text;html=1;strokeColor=none;fillColor=none;overflow=fill;align=center;" parent="1" vertex="1">
                    <mxGeometry x="600" y="95" width="60" height="140" as="geometry"/>
                </mxCell>
                <mxCell id="23" value="" style="edgeStyle=orthogonalEdgeStyle;rounded=0;orthogonalLoop=1;jettySize=auto;html=1;" parent="1" source="16" target="22" edge="1">
                    <mxGeometry relative="1" as="geometry"/>
                </mxCell>
                <mxCell id="16" value="&lt;table border=&quot;1&quot; width=&quot;100%&quot; style=&quot;width: 100% ; height: 100% ; border-collapse: collapse&quot;&gt;&lt;tbody&gt;&lt;tr&gt;&lt;td&gt;Prediction&lt;/td&gt;&lt;/tr&gt;&lt;tr&gt;&lt;td&gt;0.8&lt;/td&gt;&lt;/tr&gt;&lt;tr&gt;&lt;td&gt;0.3&lt;/td&gt;&lt;/tr&gt;&lt;tr&gt;&lt;td&gt;0.3&lt;/td&gt;&lt;/tr&gt;&lt;/tbody&gt;&lt;/table&gt;" style="text;html=1;strokeColor=none;fillColor=none;overflow=fill;align=center;" parent="1" vertex="1">
                    <mxGeometry x="600" y="265" width="60" height="140" as="geometry"/>
                </mxCell>
                <mxCell id="20" value="&lt;table border=&quot;1&quot; width=&quot;100%&quot; style=&quot;width: 100% ; height: 100% ; border-collapse: collapse&quot;&gt;&lt;tbody&gt;&lt;tr&gt;&lt;td align=&quot;center&quot;&gt;Prediction&lt;/td&gt;&lt;/tr&gt;&lt;tr&gt;&lt;td align=&quot;center&quot;&gt;0.23&lt;/td&gt;&lt;/tr&gt;&lt;/tbody&gt;&lt;/table&gt;" style="text;html=1;strokeColor=none;fillColor=none;overflow=fill;" parent="1" vertex="1">
                    <mxGeometry x="720" y="122.5" width="60" height="85" as="geometry"/>
                </mxCell>
                <mxCell id="22" value="&lt;table border=&quot;1&quot; width=&quot;100%&quot; style=&quot;width: 100% ; height: 100% ; border-collapse: collapse&quot;&gt;&lt;tbody&gt;&lt;tr&gt;&lt;td align=&quot;center&quot;&gt;Prediction&lt;/td&gt;&lt;/tr&gt;&lt;tr&gt;&lt;td align=&quot;center&quot;&gt;0.53&lt;/td&gt;&lt;/tr&gt;&lt;/tbody&gt;&lt;/table&gt;" style="text;html=1;strokeColor=none;fillColor=none;overflow=fill;" parent="1" vertex="1">
                    <mxGeometry x="720" y="292.5" width="60" height="85" as="geometry"/>
                </mxCell>
                <mxCell id="24" value="Repeat for other values in feature F1..." style="shape=ext;double=1;rounded=0;whiteSpace=wrap;html=1;" parent="1" vertex="1">
                    <mxGeometry x="270" y="414" width="490" height="36" as="geometry"/>
                </mxCell>
                <mxCell id="29" value="&lt;table border=&quot;1&quot; width=&quot;100%&quot; style=&quot;width: 100% ; height: 100% ; border-collapse: collapse ; font-size: 14px&quot;&gt;&lt;tbody style=&quot;font-size: 14px&quot;&gt;&lt;tr style=&quot;font-size: 14px&quot;&gt;&lt;td align=&quot;center&quot; style=&quot;font-size: 14px&quot;&gt;&lt;b style=&quot;font-size: 14px&quot;&gt;&lt;font style=&quot;font-size: 14px&quot;&gt;F1&lt;/font&gt;&lt;/b&gt;&lt;/td&gt;&lt;td align=&quot;center&quot; style=&quot;font-size: 14px&quot;&gt;&lt;font style=&quot;font-size: 14px&quot;&gt;&lt;b style=&quot;font-size: 14px&quot;&gt;Predictions&lt;/b&gt;&lt;/font&gt;&lt;/td&gt;&lt;/tr&gt;&lt;tr style=&quot;font-size: 14px&quot;&gt;&lt;td align=&quot;center&quot; style=&quot;font-size: 14px&quot;&gt;A&lt;/td&gt;&lt;td align=&quot;center&quot; style=&quot;font-size: 14px&quot;&gt;0.23&lt;/td&gt;&lt;/tr&gt;&lt;tr style=&quot;font-size: 14px&quot;&gt;&lt;td align=&quot;center&quot; style=&quot;font-size: 14px&quot;&gt;B&lt;/td&gt;&lt;td align=&quot;center&quot; style=&quot;font-size: 14px&quot;&gt;0.53&lt;/td&gt;&lt;/tr&gt;&lt;tr style=&quot;font-size: 14px&quot;&gt;&lt;td style=&quot;text-align: center ; font-size: 14px&quot;&gt;C&lt;/td&gt;&lt;td style=&quot;text-align: center ; font-size: 14px&quot;&gt;0.2&lt;/td&gt;&lt;/tr&gt;&lt;/tbody&gt;&lt;/table&gt;" style="text;html=1;strokeColor=none;fillColor=none;overflow=fill;fontSize=14;" parent="1" vertex="1">
                    <mxGeometry x="890" y="170" width="170" height="150" as="geometry"/>
                </mxCell>
                <mxCell id="30" value="" style="endArrow=classic;html=1;fontSize=14;entryX=0;entryY=0.5;entryDx=0;entryDy=0;exitX=1;exitY=0.5;exitDx=0;exitDy=0;" parent="1" source="20" target="29" edge="1">
                    <mxGeometry width="50" height="50" relative="1" as="geometry">
                        <mxPoint x="690" y="330" as="sourcePoint"/>
                        <mxPoint x="740" y="280" as="targetPoint"/>
                    </mxGeometry>
                </mxCell>
                <mxCell id="31" value="" style="endArrow=classic;html=1;fontSize=14;entryX=0;entryY=0.5;entryDx=0;entryDy=0;exitX=1;exitY=0.5;exitDx=0;exitDy=0;" parent="1" source="22" target="29" edge="1">
                    <mxGeometry width="50" height="50" relative="1" as="geometry">
                        <mxPoint x="790" y="175" as="sourcePoint"/>
                        <mxPoint x="900" y="255" as="targetPoint"/>
                    </mxGeometry>
                </mxCell>
                <mxCell id="32" value="" style="endArrow=classic;html=1;fontSize=14;entryX=0;entryY=0.5;entryDx=0;entryDy=0;exitX=1;exitY=0.5;exitDx=0;exitDy=0;" parent="1" source="24" target="29" edge="1">
                    <mxGeometry width="50" height="50" relative="1" as="geometry">
                        <mxPoint x="790" y="345" as="sourcePoint"/>
                        <mxPoint x="900" y="255" as="targetPoint"/>
                    </mxGeometry>
                </mxCell>
                <mxCell id="33" value="Set &quot;A&quot; to F1" style="text;html=1;strokeColor=none;fillColor=none;align=center;verticalAlign=middle;whiteSpace=wrap;rounded=0;fontSize=13;fontStyle=2" parent="1" vertex="1">
                    <mxGeometry x="230" y="90" width="110" height="20" as="geometry"/>
                </mxCell>
                <mxCell id="34" value="Set &quot;B&quot; to F1" style="text;html=1;strokeColor=none;fillColor=none;align=center;verticalAlign=middle;whiteSpace=wrap;rounded=0;fontSize=13;fontStyle=2" parent="1" vertex="1">
                    <mxGeometry x="240" y="250" width="110" height="20" as="geometry"/>
                </mxCell>
                <mxCell id="35" value="Avg all predictions" style="text;html=1;strokeColor=none;fillColor=none;align=center;verticalAlign=middle;whiteSpace=wrap;rounded=0;fontSize=13;fontStyle=2" parent="1" vertex="1">
                    <mxGeometry x="695" y="95" width="110" height="20" as="geometry"/>
                </mxCell>
                <mxCell id="37" value="Avg all predictions" style="text;html=1;strokeColor=none;fillColor=none;align=center;verticalAlign=middle;whiteSpace=wrap;rounded=0;fontSize=13;fontStyle=2" parent="1" vertex="1">
                    <mxGeometry x="695" y="272.5" width="110" height="20" as="geometry"/>
                </mxCell>
                <mxCell id="38" value="PDP for F1" style="text;strokeColor=none;fillColor=none;html=1;fontSize=24;fontStyle=1;verticalAlign=middle;align=center;" parent="1" vertex="1">
                    <mxGeometry x="430" y="30" width="100" height="40" as="geometry"/>
                </mxCell>
                <mxCell id="arSvU0oEPpdhLdqOWEh5-38" value="How prediction changes for among values of features." style="text;html=1;strokeColor=none;fillColor=none;align=center;verticalAlign=middle;whiteSpace=wrap;rounded=0;fontSize=13;fontStyle=2" parent="1" vertex="1">
                    <mxGeometry x="880" y="330" width="210" height="20" as="geometry"/>
                </mxCell>
            </root>
        </mxGraphModel>
    </diagram>
    <diagram id="YUY6m3i7boVoxjHdAY1q" name="PFIMP">
        &#xa;
        <mxGraphModel dx="1150" dy="860" grid="1" gridSize="10" guides="1" tooltips="1" connect="1" arrows="1" fold="1" page="1" pageScale="1" pageWidth="3300" pageHeight="4681" math="0" shadow="0">
            &#xa;
            <root>
                &#xa;
                <mxCell id="HkLHAyswq8kgfgaEraqC-0"/>
                &#xa;
                <mxCell id="HkLHAyswq8kgfgaEraqC-1" parent="HkLHAyswq8kgfgaEraqC-0"/>
                &#xa;
                <mxCell id="2KZLn5wHk9nK_VMhMmcE-0" value="&lt;table border=&quot;1&quot; width=&quot;100%&quot; style=&quot;width: 100% ; height: 100% ; border-collapse: collapse ; font-size: 14px&quot;&gt;&lt;tbody style=&quot;font-size: 14px&quot;&gt;&lt;tr style=&quot;font-size: 14px&quot;&gt;&lt;td align=&quot;center&quot; style=&quot;font-size: 14px&quot;&gt;&lt;b style=&quot;font-size: 14px&quot;&gt;&lt;font style=&quot;font-size: 14px&quot; color=&quot;#ff3399&quot;&gt;F1&lt;/font&gt;&lt;/b&gt;&lt;/td&gt;&lt;td align=&quot;center&quot; style=&quot;font-size: 14px&quot;&gt;&lt;font style=&quot;font-size: 14px&quot;&gt;&lt;b style=&quot;font-size: 14px&quot;&gt;F2&lt;/b&gt;&lt;/font&gt;&lt;/td&gt;&lt;td align=&quot;center&quot; style=&quot;font-size: 14px&quot;&gt;&lt;b style=&quot;font-size: 14px&quot;&gt;&lt;font style=&quot;font-size: 14px&quot;&gt;F3&lt;/font&gt;&lt;/b&gt;&lt;/td&gt;&lt;/tr&gt;&lt;tr style=&quot;font-size: 14px&quot;&gt;&lt;td align=&quot;center&quot; style=&quot;font-size: 14px&quot;&gt;&lt;font style=&quot;font-size: 14px&quot;&gt;A&lt;/font&gt;&lt;/td&gt;&lt;td align=&quot;center&quot; style=&quot;font-size: 14px&quot;&gt;&lt;font style=&quot;font-size: 14px&quot;&gt;1&lt;/font&gt;&lt;/td&gt;&lt;td align=&quot;center&quot; style=&quot;font-size: 14px&quot;&gt;&lt;font style=&quot;font-size: 14px&quot;&gt;4&lt;/font&gt;&lt;/td&gt;&lt;/tr&gt;&lt;tr style=&quot;font-size: 14px&quot;&gt;&lt;td align=&quot;center&quot; style=&quot;font-size: 14px&quot;&gt;&lt;font style=&quot;font-size: 14px&quot;&gt;B&lt;/font&gt;&lt;/td&gt;&lt;td align=&quot;center&quot; style=&quot;font-size: 14px&quot;&gt;&lt;font style=&quot;font-size: 14px&quot;&gt;2&lt;/font&gt;&lt;/td&gt;&lt;td align=&quot;center&quot; style=&quot;font-size: 14px&quot;&gt;&lt;font style=&quot;font-size: 14px&quot;&gt;5&lt;/font&gt;&lt;/td&gt;&lt;/tr&gt;&lt;tr style=&quot;font-size: 14px&quot;&gt;&lt;td style=&quot;text-align: center ; font-size: 14px&quot;&gt;&lt;font style=&quot;font-size: 14px&quot;&gt;C&lt;/font&gt;&lt;/td&gt;&lt;td style=&quot;text-align: center ; font-size: 14px&quot;&gt;&lt;font style=&quot;font-size: 14px&quot;&gt;3&lt;/font&gt;&lt;/td&gt;&lt;td style=&quot;text-align: center ; font-size: 14px&quot;&gt;&lt;font style=&quot;font-size: 14px&quot;&gt;6&lt;/font&gt;&lt;/td&gt;&lt;/tr&gt;&lt;/tbody&gt;&lt;/table&gt;" style="text;html=1;strokeColor=none;fillColor=none;overflow=fill;fontSize=14;" parent="HkLHAyswq8kgfgaEraqC-1" vertex="1">
                    &#xa;
                    <mxGeometry x="80" y="80" width="130" height="150" as="geometry"/>
                    &#xa;
                </mxCell>
                &#xa;
                <mxCell id="SfqoKaldiRTwfECvRRcr-0" value="Model" style="shape=cube;whiteSpace=wrap;html=1;boundedLbl=1;backgroundOutline=1;darkOpacity=0.05;darkOpacity2=0.1;" parent="HkLHAyswq8kgfgaEraqC-1" vertex="1">
                    &#xa;
                    <mxGeometry x="250" y="140" width="90" height="50" as="geometry"/>
                    &#xa;
                </mxCell>
                &#xa;
                <mxCell id="MiWTA91bsvfncbDnKojD-0" value="" style="endArrow=classic;html=1;entryX=0;entryY=0;entryDx=0;entryDy=15;entryPerimeter=0;exitX=1;exitY=0.5;exitDx=0;exitDy=0;" parent="HkLHAyswq8kgfgaEraqC-1" source="2KZLn5wHk9nK_VMhMmcE-0" target="SfqoKaldiRTwfECvRRcr-0" edge="1">
                    &#xa;
                    <mxGeometry width="50" height="50" relative="1" as="geometry">
                        &#xa;
                        <mxPoint x="280" y="380" as="sourcePoint"/>
                        &#xa;
                        <mxPoint x="330" y="330" as="targetPoint"/>
                        &#xa;
                    </mxGeometry>
                    &#xa;
                </mxCell>
                &#xa;
                <mxCell id="HFdBUEBXMxLDc7wzqm-2-0" value="Predict" style="text;html=1;strokeColor=none;fillColor=none;align=center;verticalAlign=middle;whiteSpace=wrap;rounded=0;fontSize=13;fontStyle=2" parent="HkLHAyswq8kgfgaEraqC-1" vertex="1">
                    &#xa;
                    <mxGeometry x="330" y="130" width="110" height="20" as="geometry"/>
                    &#xa;
                </mxCell>
                &#xa;
                <mxCell id="HFdBUEBXMxLDc7wzqm-2-2" value="" style="endArrow=classic;html=1;exitX=0;exitY=0;exitDx=90;exitDy=20;exitPerimeter=0;" parent="HkLHAyswq8kgfgaEraqC-1" source="SfqoKaldiRTwfECvRRcr-0" target="xhd8FLFXxf5AxF6MOEap-0" edge="1">
                    &#xa;
                    <mxGeometry width="50" height="50" relative="1" as="geometry">
                        &#xa;
                        <mxPoint x="260" y="340" as="sourcePoint"/>
                        &#xa;
                        <mxPoint x="610" y="340" as="targetPoint"/>
                        &#xa;
                    </mxGeometry>
                    &#xa;
                </mxCell>
                &#xa;
                <mxCell id="xhd8FLFXxf5AxF6MOEap-0" value="&lt;table border=&quot;1&quot; width=&quot;100%&quot; style=&quot;width: 100% ; height: 100% ; border-collapse: collapse&quot;&gt;&lt;tbody&gt;&lt;tr&gt;&lt;td&gt;Prediction&lt;/td&gt;&lt;/tr&gt;&lt;tr&gt;&lt;td&gt;0.5&lt;/td&gt;&lt;/tr&gt;&lt;tr&gt;&lt;td&gt;0.2&lt;/td&gt;&lt;/tr&gt;&lt;tr&gt;&lt;td&gt;0.1&lt;/td&gt;&lt;/tr&gt;&lt;/tbody&gt;&lt;/table&gt;" style="text;html=1;strokeColor=none;fillColor=none;overflow=fill;align=center;" parent="HkLHAyswq8kgfgaEraqC-1" vertex="1">
                    &#xa;
                    <mxGeometry x="430" y="90" width="60" height="140" as="geometry"/>
                    &#xa;
                </mxCell>
                &#xa;
                <mxCell id="nI_7v8i7ZW2jfS_WiGOw-0" value="Error original = 0.8" style="text;html=1;strokeColor=none;fillColor=none;align=center;verticalAlign=middle;whiteSpace=wrap;rounded=0;strokeWidth=1;fontSize=15;" parent="HkLHAyswq8kgfgaEraqC-1" vertex="1">
                    &#xa;
                    <mxGeometry x="570" y="155" width="140" height="20" as="geometry"/>
                    &#xa;
                </mxCell>
                &#xa;
                <mxCell id="nI_7v8i7ZW2jfS_WiGOw-1" value="" style="endArrow=classic;html=1;exitX=1;exitY=0.5;exitDx=0;exitDy=0;entryX=0;entryY=0.25;entryDx=0;entryDy=0;" parent="HkLHAyswq8kgfgaEraqC-1" source="xhd8FLFXxf5AxF6MOEap-0" target="nI_7v8i7ZW2jfS_WiGOw-0" edge="1">
                    &#xa;
                    <mxGeometry width="50" height="50" relative="1" as="geometry">
                        &#xa;
                        <mxPoint x="350" y="170" as="sourcePoint"/>
                        &#xa;
                        <mxPoint x="440" y="170" as="targetPoint"/>
                        &#xa;
                    </mxGeometry>
                    &#xa;
                </mxCell>
                &#xa;
                <mxCell id="nI_7v8i7ZW2jfS_WiGOw-2" value="&lt;table border=&quot;1&quot; width=&quot;100%&quot; style=&quot;width: 100% ; height: 100% ; border-collapse: collapse ; font-size: 14px&quot;&gt;&lt;tbody style=&quot;font-size: 14px&quot;&gt;&lt;tr style=&quot;font-size: 14px&quot;&gt;&lt;td align=&quot;center&quot; style=&quot;font-size: 14px&quot;&gt;&lt;b style=&quot;font-size: 14px&quot;&gt;&lt;font style=&quot;font-size: 14px&quot; color=&quot;#ff3399&quot;&gt;F1&lt;/font&gt;&lt;/b&gt;&lt;/td&gt;&lt;td align=&quot;center&quot; style=&quot;font-size: 14px&quot;&gt;&lt;font style=&quot;font-size: 14px&quot;&gt;&lt;b style=&quot;font-size: 14px&quot;&gt;F2&lt;/b&gt;&lt;/font&gt;&lt;/td&gt;&lt;td align=&quot;center&quot; style=&quot;font-size: 14px&quot;&gt;&lt;b style=&quot;font-size: 14px&quot;&gt;&lt;font style=&quot;font-size: 14px&quot;&gt;F3&lt;/font&gt;&lt;/b&gt;&lt;/td&gt;&lt;/tr&gt;&lt;tr style=&quot;font-size: 14px&quot;&gt;&lt;td align=&quot;center&quot; style=&quot;font-size: 14px&quot;&gt;&lt;font style=&quot;font-size: 14px&quot;&gt;B&lt;/font&gt;&lt;/td&gt;&lt;td align=&quot;center&quot; style=&quot;font-size: 14px&quot;&gt;&lt;font style=&quot;font-size: 14px&quot;&gt;1&lt;/font&gt;&lt;/td&gt;&lt;td align=&quot;center&quot; style=&quot;font-size: 14px&quot;&gt;&lt;font style=&quot;font-size: 14px&quot;&gt;4&lt;/font&gt;&lt;/td&gt;&lt;/tr&gt;&lt;tr style=&quot;font-size: 14px&quot;&gt;&lt;td align=&quot;center&quot; style=&quot;font-size: 14px&quot;&gt;&lt;font style=&quot;font-size: 14px&quot;&gt;C&lt;/font&gt;&lt;/td&gt;&lt;td align=&quot;center&quot; style=&quot;font-size: 14px&quot;&gt;&lt;font style=&quot;font-size: 14px&quot;&gt;2&lt;/font&gt;&lt;/td&gt;&lt;td align=&quot;center&quot; style=&quot;font-size: 14px&quot;&gt;&lt;font style=&quot;font-size: 14px&quot;&gt;5&lt;/font&gt;&lt;/td&gt;&lt;/tr&gt;&lt;tr style=&quot;font-size: 14px&quot;&gt;&lt;td style=&quot;text-align: center ; font-size: 14px&quot;&gt;A&lt;/td&gt;&lt;td style=&quot;text-align: center ; font-size: 14px&quot;&gt;&lt;font style=&quot;font-size: 14px&quot;&gt;3&lt;/font&gt;&lt;/td&gt;&lt;td style=&quot;text-align: center ; font-size: 14px&quot;&gt;&lt;font style=&quot;font-size: 14px&quot;&gt;6&lt;/font&gt;&lt;/td&gt;&lt;/tr&gt;&lt;/tbody&gt;&lt;/table&gt;" style="text;html=1;strokeColor=none;fillColor=none;overflow=fill;fontSize=14;" parent="HkLHAyswq8kgfgaEraqC-1" vertex="1">
                    &#xa;
                    <mxGeometry x="80" y="290" width="130" height="150" as="geometry"/>
                    &#xa;
                </mxCell>
                &#xa;
                <mxCell id="nI_7v8i7ZW2jfS_WiGOw-3" value="Model" style="shape=cube;whiteSpace=wrap;html=1;boundedLbl=1;backgroundOutline=1;darkOpacity=0.05;darkOpacity2=0.1;" parent="HkLHAyswq8kgfgaEraqC-1" vertex="1">
                    &#xa;
                    <mxGeometry x="250" y="350" width="90" height="50" as="geometry"/>
                    &#xa;
                </mxCell>
                &#xa;
                <mxCell id="nI_7v8i7ZW2jfS_WiGOw-4" value="" style="endArrow=classic;html=1;entryX=0;entryY=0;entryDx=0;entryDy=15;entryPerimeter=0;exitX=1;exitY=0.5;exitDx=0;exitDy=0;" parent="HkLHAyswq8kgfgaEraqC-1" source="nI_7v8i7ZW2jfS_WiGOw-2" target="nI_7v8i7ZW2jfS_WiGOw-3" edge="1">
                    &#xa;
                    <mxGeometry width="50" height="50" relative="1" as="geometry">
                        &#xa;
                        <mxPoint x="280" y="590" as="sourcePoint"/>
                        &#xa;
                        <mxPoint x="330" y="540" as="targetPoint"/>
                        &#xa;
                    </mxGeometry>
                    &#xa;
                </mxCell>
                &#xa;
                <mxCell id="nI_7v8i7ZW2jfS_WiGOw-5" value="Predict" style="text;html=1;strokeColor=none;fillColor=none;align=center;verticalAlign=middle;whiteSpace=wrap;rounded=0;fontSize=13;fontStyle=2" parent="HkLHAyswq8kgfgaEraqC-1" vertex="1">
                    &#xa;
                    <mxGeometry x="330" y="340" width="110" height="20" as="geometry"/>
                    &#xa;
                </mxCell>
                &#xa;
                <mxCell id="nI_7v8i7ZW2jfS_WiGOw-6" value="" style="endArrow=classic;html=1;exitX=0;exitY=0;exitDx=90;exitDy=20;exitPerimeter=0;" parent="HkLHAyswq8kgfgaEraqC-1" source="nI_7v8i7ZW2jfS_WiGOw-3" target="nI_7v8i7ZW2jfS_WiGOw-7" edge="1">
                    &#xa;
                    <mxGeometry width="50" height="50" relative="1" as="geometry">
                        &#xa;
                        <mxPoint x="260" y="550" as="sourcePoint"/>
                        &#xa;
                        <mxPoint x="610" y="550" as="targetPoint"/>
                        &#xa;
                    </mxGeometry>
                    &#xa;
                </mxCell>
                &#xa;
                <mxCell id="nI_7v8i7ZW2jfS_WiGOw-7" value="&lt;table border=&quot;1&quot; width=&quot;100%&quot; style=&quot;width: 100% ; height: 100% ; border-collapse: collapse&quot;&gt;&lt;tbody&gt;&lt;tr&gt;&lt;td&gt;Prediction&lt;/td&gt;&lt;/tr&gt;&lt;tr&gt;&lt;td&gt;0.1&lt;/td&gt;&lt;/tr&gt;&lt;tr&gt;&lt;td&gt;0.3&lt;/td&gt;&lt;/tr&gt;&lt;tr&gt;&lt;td&gt;0.9&lt;/td&gt;&lt;/tr&gt;&lt;/tbody&gt;&lt;/table&gt;" style="text;html=1;strokeColor=none;fillColor=none;overflow=fill;align=center;" parent="HkLHAyswq8kgfgaEraqC-1" vertex="1">
                    &#xa;
                    <mxGeometry x="430" y="300" width="60" height="140" as="geometry"/>
                    &#xa;
                </mxCell>
                &#xa;
                <mxCell id="nI_7v8i7ZW2jfS_WiGOw-8" value="Error new = 0.95" style="text;html=1;strokeColor=none;fillColor=none;align=center;verticalAlign=middle;whiteSpace=wrap;rounded=0;strokeWidth=1;fontSize=15;" parent="HkLHAyswq8kgfgaEraqC-1" vertex="1">
                    &#xa;
                    <mxGeometry x="570" y="365" width="140" height="20" as="geometry"/>
                    &#xa;
                </mxCell>
                &#xa;
                <mxCell id="nI_7v8i7ZW2jfS_WiGOw-9" value="" style="endArrow=classic;html=1;exitX=1;exitY=0.5;exitDx=0;exitDy=0;entryX=0;entryY=0.25;entryDx=0;entryDy=0;" parent="HkLHAyswq8kgfgaEraqC-1" source="nI_7v8i7ZW2jfS_WiGOw-7" target="nI_7v8i7ZW2jfS_WiGOw-8" edge="1">
                    &#xa;
                    <mxGeometry width="50" height="50" relative="1" as="geometry">
                        &#xa;
                        <mxPoint x="350" y="380" as="sourcePoint"/>
                        &#xa;
                        <mxPoint x="440" y="380" as="targetPoint"/>
                        &#xa;
                    </mxGeometry>
                    &#xa;
                </mxCell>
                &#xa;
                <mxCell id="nI_7v8i7ZW2jfS_WiGOw-10" value="Permute Feature F1" style="text;html=1;strokeColor=none;fillColor=none;align=center;verticalAlign=middle;whiteSpace=wrap;rounded=0;strokeWidth=1;fontSize=15;" parent="HkLHAyswq8kgfgaEraqC-1" vertex="1">
                    &#xa;
                    <mxGeometry x="70" y="260" width="140" height="20" as="geometry"/>
                    &#xa;
                </mxCell>
                &#xa;
                <mxCell id="nI_7v8i7ZW2jfS_WiGOw-12" value="&lt;span&gt;Error change = Error original - Error new&lt;/span&gt;" style="rounded=0;whiteSpace=wrap;html=1;strokeWidth=1;fontSize=15;" parent="HkLHAyswq8kgfgaEraqC-1" vertex="1">
                    &#xa;
                    <mxGeometry x="780" y="345" width="280" height="60" as="geometry"/>
                    &#xa;
                </mxCell>
                &#xa;
                <mxCell id="nI_7v8i7ZW2jfS_WiGOw-13" value="" style="endArrow=classic;html=1;exitX=1;exitY=0.5;exitDx=0;exitDy=0;entryX=0;entryY=0.5;entryDx=0;entryDy=0;" parent="HkLHAyswq8kgfgaEraqC-1" source="nI_7v8i7ZW2jfS_WiGOw-8" target="nI_7v8i7ZW2jfS_WiGOw-12" edge="1">
                    &#xa;
                    <mxGeometry width="50" height="50" relative="1" as="geometry">
                        &#xa;
                        <mxPoint x="500" y="380" as="sourcePoint"/>
                        &#xa;
                        <mxPoint x="580" y="380" as="targetPoint"/>
                        &#xa;
                    </mxGeometry>
                    &#xa;
                </mxCell>
                &#xa;
                <mxCell id="nI_7v8i7ZW2jfS_WiGOw-15" value="" style="endArrow=classic;html=1;exitX=1;exitY=0.5;exitDx=0;exitDy=0;entryX=0;entryY=0.5;entryDx=0;entryDy=0;" parent="HkLHAyswq8kgfgaEraqC-1" source="nI_7v8i7ZW2jfS_WiGOw-0" target="nI_7v8i7ZW2jfS_WiGOw-12" edge="1">
                    &#xa;
                    <mxGeometry width="50" height="50" relative="1" as="geometry">
                        &#xa;
                        <mxPoint x="720" y="385" as="sourcePoint"/>
                        &#xa;
                        <mxPoint x="790" y="385" as="targetPoint"/>
                        &#xa;
                    </mxGeometry>
                    &#xa;
                </mxCell>
                &#xa;
                <mxCell id="UHs5zu0mVSmjDgDqHlkS-0" value="Permutation Feature Importance for F1" style="text;strokeColor=none;fillColor=none;html=1;fontSize=24;fontStyle=1;verticalAlign=middle;align=center;" parent="HkLHAyswq8kgfgaEraqC-1" vertex="1">
                    &#xa;
                    <mxGeometry x="430" y="30" width="100" height="40" as="geometry"/>
                    &#xa;
                </mxCell>
                &#xa;
                <mxCell id="UHs5zu0mVSmjDgDqHlkS-1" value="Original data" style="text;html=1;strokeColor=none;fillColor=none;align=center;verticalAlign=middle;whiteSpace=wrap;rounded=0;strokeWidth=1;fontSize=15;" parent="HkLHAyswq8kgfgaEraqC-1" vertex="1">
                    &#xa;
                    <mxGeometry x="75" y="50" width="140" height="20" as="geometry"/>
                    &#xa;
                </mxCell>
                &#xa;
                <mxCell id="UHs5zu0mVSmjDgDqHlkS-2" value="already trained model" style="text;html=1;strokeColor=none;fillColor=none;align=center;verticalAlign=middle;whiteSpace=wrap;rounded=0;fontSize=13;fontStyle=2" parent="HkLHAyswq8kgfgaEraqC-1" vertex="1">
                    &#xa;
                    <mxGeometry x="250" y="200" width="110" height="20" as="geometry"/>
                    &#xa;
                </mxCell>
                &#xa;
                <mxCell id="UHs5zu0mVSmjDgDqHlkS-3" value="already trained model" style="text;html=1;strokeColor=none;fillColor=none;align=center;verticalAlign=middle;whiteSpace=wrap;rounded=0;fontSize=13;fontStyle=2" parent="HkLHAyswq8kgfgaEraqC-1" vertex="1">
                    &#xa;
                    <mxGeometry x="250" y="410" width="110" height="20" as="geometry"/>
                    &#xa;
                </mxCell>
                &#xa;
            </root>
            &#xa;
        </mxGraphModel>
        &#xa;
    </diagram>
    <diagram id="FsmBVFs4FMQiFKru6N6D" name="lime">
        <mxGraphModel dx="930" dy="860" grid="1" gridSize="10" guides="1" tooltips="1" connect="1" arrows="1" fold="1" page="1" pageScale="1" pageWidth="1169" pageHeight="827" math="0" shadow="0">
            <root>
                <mxCell id="rXxITz0PeTWqt7mtl_Nf-0"/>
                <mxCell id="rXxITz0PeTWqt7mtl_Nf-1" parent="rXxITz0PeTWqt7mtl_Nf-0"/>
                <mxCell id="skPO-pyynrPP0ZyD8h6X-3" value="" style="edgeStyle=orthogonalEdgeStyle;rounded=0;orthogonalLoop=1;jettySize=auto;html=1;fontSize=12;entryX=0.5;entryY=0;entryDx=0;entryDy=0;" parent="rXxITz0PeTWqt7mtl_Nf-1" source="skPO-pyynrPP0ZyD8h6X-0" target="skPO-pyynrPP0ZyD8h6X-1" edge="1">
                    <mxGeometry relative="1" as="geometry">
                        <mxPoint x="380" y="254" as="targetPoint"/>
                    </mxGeometry>
                </mxCell>
                <mxCell id="skPO-pyynrPP0ZyD8h6X-0" value="&lt;table border=&quot;1&quot; width=&quot;100%&quot; style=&quot;width: 100% ; height: 100% ; border-collapse: collapse&quot;&gt;&lt;tbody&gt;&lt;tr&gt;&lt;td align=&quot;center&quot;&gt;&lt;font style=&quot;font-size: 14px&quot;&gt;Text&lt;/font&gt;&lt;/td&gt;&lt;td align=&quot;center&quot;&gt;&lt;font size=&quot;3&quot;&gt;Is Spam&lt;/font&gt;&lt;/td&gt;&lt;/tr&gt;&lt;tr&gt;&lt;td align=&quot;center&quot;&gt;Chrismas Song visit my channel! ;)&lt;/td&gt;&lt;td align=&quot;center&quot;&gt;1&lt;/td&gt;&lt;/tr&gt;&lt;/tbody&gt;&lt;/table&gt;" style="text;html=1;strokeColor=none;fillColor=none;overflow=fill;" parent="rXxITz0PeTWqt7mtl_Nf-1" vertex="1">
                    <mxGeometry x="305" y="60" width="340" height="70" as="geometry"/>
                </mxCell>
                <mxCell id="skPO-pyynrPP0ZyD8h6X-1" value="&lt;table border=&quot;1&quot; width=&quot;100%&quot; style=&quot;width: 100% ; height: 100% ; border-collapse: collapse ; font-size: 12px&quot;&gt;&lt;tbody style=&quot;font-size: 12px&quot;&gt;&lt;tr style=&quot;font-size: 12px&quot;&gt;&lt;td style=&quot;font-size: 12px&quot;&gt;Chrismas&lt;/td&gt;&lt;td style=&quot;font-size: 12px&quot;&gt;Song&lt;/td&gt;&lt;td style=&quot;font-size: 12px&quot;&gt;visit&lt;/td&gt;&lt;td style=&quot;font-size: 12px&quot;&gt;my&lt;/td&gt;&lt;td style=&quot;font-size: 12px&quot;&gt;channel!&lt;/td&gt;&lt;td style=&quot;font-size: 12px&quot;&gt;;)&lt;/td&gt;&lt;td style=&quot;font-size: 12px&quot;&gt;weight&lt;/td&gt;&lt;td style=&quot;font-size: 12px&quot;&gt;Prediction&lt;/td&gt;&lt;/tr&gt;&lt;tr style=&quot;font-size: 12px&quot;&gt;&lt;td style=&quot;font-size: 12px&quot;&gt;1&lt;/td&gt;&lt;td style=&quot;font-size: 12px&quot;&gt;1&lt;/td&gt;&lt;td style=&quot;font-size: 12px&quot;&gt;1&lt;/td&gt;&lt;td style=&quot;font-size: 12px&quot;&gt;0&lt;/td&gt;&lt;td style=&quot;font-size: 12px&quot;&gt;1&lt;/td&gt;&lt;td style=&quot;font-size: 12px&quot;&gt;1&lt;/td&gt;&lt;td style=&quot;font-size: 12px&quot;&gt;0.8&lt;/td&gt;&lt;td style=&quot;font-size: 12px&quot;&gt;0.99&lt;/td&gt;&lt;/tr&gt;&lt;tr&gt;&lt;td&gt;0&lt;/td&gt;&lt;td&gt;0&lt;/td&gt;&lt;td&gt;1&lt;/td&gt;&lt;td&gt;1&lt;/td&gt;&lt;td&gt;1&lt;/td&gt;&lt;td&gt;1&lt;/td&gt;&lt;td&gt;0.7&lt;/td&gt;&lt;td&gt;0.99&lt;/td&gt;&lt;/tr&gt;&lt;tr&gt;&lt;td&gt;1&lt;/td&gt;&lt;td&gt;1&lt;/td&gt;&lt;td&gt;1&lt;/td&gt;&lt;td&gt;1&lt;/td&gt;&lt;td&gt;0&lt;/td&gt;&lt;td&gt;0&lt;/td&gt;&lt;td&gt;0.7&lt;/td&gt;&lt;td&gt;0.17&lt;/td&gt;&lt;/tr&gt;&lt;tr&gt;&lt;td&gt;1&lt;/td&gt;&lt;td&gt;1&lt;/td&gt;&lt;td&gt;0&lt;/td&gt;&lt;td&gt;1&lt;/td&gt;&lt;td&gt;0&lt;/td&gt;&lt;td&gt;1&lt;/td&gt;&lt;td&gt;0.7&lt;/td&gt;&lt;td&gt;0.17&lt;/td&gt;&lt;/tr&gt;&lt;/tbody&gt;&lt;/table&gt;" style="text;html=1;strokeColor=none;fillColor=none;overflow=fill;align=center;verticalAlign=middle;fontSize=12;" parent="rXxITz0PeTWqt7mtl_Nf-1" vertex="1">
                    <mxGeometry x="195" y="224" width="560" height="180" as="geometry"/>
                </mxCell>
                <mxCell id="skPO-pyynrPP0ZyD8h6X-4" value="&lt;table border=&quot;1&quot; width=&quot;100%&quot; style=&quot;width: 100% ; height: 100% ; border-collapse: collapse&quot;&gt;&lt;tbody&gt;&lt;tr&gt;&lt;td align=&quot;center&quot;&gt;Feature&lt;/td&gt;&lt;td align=&quot;center&quot;&gt;Linear Weight&lt;/td&gt;&lt;/tr&gt;&lt;tr&gt;&lt;td align=&quot;center&quot;&gt;channel!&lt;/td&gt;&lt;td align=&quot;center&quot;&gt;6.5&lt;/td&gt;&lt;/tr&gt;&lt;tr&gt;&lt;td align=&quot;center&quot;&gt;Chrismas&lt;/td&gt;&lt;td align=&quot;center&quot;&gt;-0.1&lt;/td&gt;&lt;/tr&gt;&lt;/tbody&gt;&lt;/table&gt;" style="text;html=1;strokeColor=none;fillColor=none;overflow=fill;fontSize=12;align=center;" parent="rXxITz0PeTWqt7mtl_Nf-1" vertex="1">
                    <mxGeometry x="450" y="644" width="180" height="140" as="geometry"/>
                </mxCell>
                <mxCell id="skPO-pyynrPP0ZyD8h6X-16" value="" style="edgeStyle=orthogonalEdgeStyle;rounded=0;orthogonalLoop=1;jettySize=auto;html=1;fontSize=12;" parent="rXxITz0PeTWqt7mtl_Nf-1" source="skPO-pyynrPP0ZyD8h6X-6" target="skPO-pyynrPP0ZyD8h6X-4" edge="1">
                    <mxGeometry relative="1" as="geometry"/>
                </mxCell>
                <mxCell id="skPO-pyynrPP0ZyD8h6X-6" value="Linear Model" style="shape=cube;whiteSpace=wrap;html=1;boundedLbl=1;backgroundOutline=1;darkOpacity=0.05;darkOpacity2=0.1;fontSize=12;align=center;" parent="rXxITz0PeTWqt7mtl_Nf-1" vertex="1">
                    <mxGeometry x="480" y="514" width="120" height="80" as="geometry"/>
                </mxCell>
                <mxCell id="skPO-pyynrPP0ZyD8h6X-7" value="" style="shape=curlyBracket;whiteSpace=wrap;html=1;rounded=1;fontSize=12;align=center;rotation=-90;size=0.5;" parent="rXxITz0PeTWqt7mtl_Nf-1" vertex="1">
                    <mxGeometry x="362.5" y="261.5" width="45" height="350" as="geometry"/>
                </mxCell>
                <mxCell id="skPO-pyynrPP0ZyD8h6X-13" value="" style="edgeStyle=orthogonalEdgeStyle;rounded=0;orthogonalLoop=1;jettySize=auto;html=1;fontSize=12;entryX=0;entryY=0;entryDx=0;entryDy=30;entryPerimeter=0;" parent="rXxITz0PeTWqt7mtl_Nf-1" source="skPO-pyynrPP0ZyD8h6X-8" target="skPO-pyynrPP0ZyD8h6X-6" edge="1">
                    <mxGeometry relative="1" as="geometry">
                        <mxPoint x="388" y="564" as="targetPoint"/>
                        <Array as="points">
                            <mxPoint x="388" y="544"/>
                        </Array>
                    </mxGeometry>
                </mxCell>
                <mxCell id="skPO-pyynrPP0ZyD8h6X-8" value="X" style="text;html=1;strokeColor=none;fillColor=none;align=center;verticalAlign=middle;whiteSpace=wrap;rounded=0;fontSize=12;" parent="rXxITz0PeTWqt7mtl_Nf-1" vertex="1">
                    <mxGeometry x="368" y="464" width="40" height="20" as="geometry"/>
                </mxCell>
                <mxCell id="skPO-pyynrPP0ZyD8h6X-15" value="" style="edgeStyle=orthogonalEdgeStyle;rounded=0;orthogonalLoop=1;jettySize=auto;html=1;fontSize=12;entryX=1.008;entryY=0.475;entryDx=0;entryDy=0;entryPerimeter=0;" parent="rXxITz0PeTWqt7mtl_Nf-1" source="skPO-pyynrPP0ZyD8h6X-9" target="skPO-pyynrPP0ZyD8h6X-6" edge="1">
                    <mxGeometry relative="1" as="geometry">
                        <mxPoint x="695" y="564" as="targetPoint"/>
                        <Array as="points">
                            <mxPoint x="695" y="552"/>
                        </Array>
                    </mxGeometry>
                </mxCell>
                <mxCell id="skPO-pyynrPP0ZyD8h6X-9" value="Y" style="text;html=1;strokeColor=none;fillColor=none;align=center;verticalAlign=middle;whiteSpace=wrap;rounded=0;fontSize=12;" parent="rXxITz0PeTWqt7mtl_Nf-1" vertex="1">
                    <mxGeometry x="675" y="464" width="40" height="20" as="geometry"/>
                </mxCell>
                <mxCell id="skPO-pyynrPP0ZyD8h6X-11" value="" style="shape=curlyBracket;whiteSpace=wrap;html=1;rounded=1;fontSize=12;align=center;rotation=-90;size=0.5;" parent="rXxITz0PeTWqt7mtl_Nf-1" vertex="1">
                    <mxGeometry x="671.25" y="390.25" width="45" height="92.5" as="geometry"/>
                </mxCell>
                <mxCell id="skPO-pyynrPP0ZyD8h6X-17" value="Predict Spam (1 = Yes)" style="text;html=1;strokeColor=none;fillColor=none;align=center;verticalAlign=middle;whiteSpace=wrap;rounded=0;fontSize=12;fontStyle=2" parent="rXxITz0PeTWqt7mtl_Nf-1" vertex="1">
                    <mxGeometry x="150" y="65" width="160" height="20" as="geometry"/>
                </mxCell>
                <mxCell id="skPO-pyynrPP0ZyD8h6X-21" value="" style="edgeStyle=orthogonalEdgeStyle;rounded=0;orthogonalLoop=1;jettySize=auto;html=1;fontSize=12;entryX=0;entryY=0.5;entryDx=0;entryDy=0;" parent="rXxITz0PeTWqt7mtl_Nf-1" source="skPO-pyynrPP0ZyD8h6X-19" target="skPO-pyynrPP0ZyD8h6X-0" edge="1">
                    <mxGeometry relative="1" as="geometry">
                        <mxPoint x="222" y="100" as="targetPoint"/>
                    </mxGeometry>
                </mxCell>
                <mxCell id="skPO-pyynrPP0ZyD8h6X-19" value="Deep Learning" style="shape=cube;whiteSpace=wrap;html=1;boundedLbl=1;backgroundOutline=1;darkOpacity=0.05;darkOpacity2=0.1;fontSize=12;align=center;" parent="rXxITz0PeTWqt7mtl_Nf-1" vertex="1">
                    <mxGeometry x="40" y="65" width="102" height="60" as="geometry"/>
                </mxCell>
                <mxCell id="skPO-pyynrPP0ZyD8h6X-22" value="Generate new datasets around sample x" style="text;html=1;strokeColor=none;fillColor=none;align=center;verticalAlign=middle;whiteSpace=wrap;rounded=0;fontSize=12;fontStyle=2" parent="rXxITz0PeTWqt7mtl_Nf-1" vertex="1">
                    <mxGeometry x="480" y="160" width="160" height="20" as="geometry"/>
                </mxCell>
                <mxCell id="skPO-pyynrPP0ZyD8h6X-23" value="Train Linear model to understand how features affect Spam prediction" style="text;html=1;strokeColor=none;fillColor=none;align=center;verticalAlign=middle;whiteSpace=wrap;rounded=0;fontSize=12;fontStyle=2" parent="rXxITz0PeTWqt7mtl_Nf-1" vertex="1">
                    <mxGeometry x="620" y="591.5" width="160" height="20" as="geometry"/>
                </mxCell>
                <mxCell id="skPO-pyynrPP0ZyD8h6X-24" value="Keyword &quot;channel!&quot; increase Spam likelihood." style="text;html=1;strokeColor=none;fillColor=none;align=center;verticalAlign=middle;whiteSpace=wrap;rounded=0;fontSize=12;fontStyle=2" parent="rXxITz0PeTWqt7mtl_Nf-1" vertex="1">
                    <mxGeometry x="260" y="704" width="160" height="20" as="geometry"/>
                </mxCell>
                <mxCell id="skPO-pyynrPP0ZyD8h6X-25" value="Get Blackbox predictions for each sample." style="text;html=1;strokeColor=none;fillColor=none;align=center;verticalAlign=middle;whiteSpace=wrap;rounded=0;fontSize=12;fontStyle=2" parent="rXxITz0PeTWqt7mtl_Nf-1" vertex="1">
                    <mxGeometry x="30" y="320" width="160" height="20" as="geometry"/>
                </mxCell>
            </root>
        </mxGraphModel>
    </diagram>
</mxfile>